<svg xmlns="http://www.w3.org/2000/svg" width="50.53mm" height="49.67mm" viewBox="0 0 143.23 140.8"><defs><style>.cls-1{fill:#2c64ad;}.cls-2{fill:#2d65ad;}</style></defs><g id="Lag_1" data-name="Lag 1"><rect class="cls-1" x="54.2" y="49.28" width="11.09" height="1.18"/><rect class="cls-1" x="54.2" y="80.19" width="11.09" height="1.18"/><ellipse class="cls-1" cx="39.51" cy="11.12" rx="6.05" ry="0.93"/><path class="cls-1" d="M39.51,114.13c-7.37,0-15.2-1.77-15.2-5a1.73,1.73,0,0,1,.08-.49,1.09,1.09,0,0,1-.08-.39c.13-11.3.23-22.77.29-34.08q.07-14.33.09-28.54a10.74,10.74,0,0,1,.91-4.15,9.24,9.24,0,0,1,4.34-4.65,11.41,11.41,0,0,0,4.11-4.72,17.62,17.62,0,0,0,.49-12.45l-.14-.39a14.57,14.57,0,0,1-.9-3.1,16.16,16.16,0,0,1-.12-4.51l.06-.6.58.18a18.92,18.92,0,0,0,3.85.78c.44,0,.87.07,1.29.08h.7c.41,0,.84,0,1.29-.08A19,19,0,0,0,45,11.19l.58-.18.07.6a16.16,16.16,0,0,1-.13,4.51,15.29,15.29,0,0,1-.89,3.1l-.15.39A17.67,17.67,0,0,0,45,32.06a11.44,11.44,0,0,0,4.16,4.75,9.13,9.13,0,0,1,3.64,3.36,9.42,9.42,0,0,1,.66,1.26,10.87,10.87,0,0,1,.9,4.15v4.85H35.13V80.2H54.45v1.26q.09,13.42.24,26.74a1.07,1.07,0,0,1-.07.39,1.71,1.71,0,0,1,.07.49C54.7,112.36,46.87,114.13,39.51,114.13Zm-14.2-5.92.05.1.11.21-.08.21a1.07,1.07,0,0,0-.08.35c0,1.92,5.83,4,14.2,4s14.19-2.13,14.19-4a1.07,1.07,0,0,0-.08-.35l-.08-.21.11-.2a.27.27,0,0,0,.05-.12q-.15-13.29-.24-26.73V81.2H34.13V49.43h19.2V45.58a9.79,9.79,0,0,0-.82-3.76,10.12,10.12,0,0,0-.59-1.13,8.28,8.28,0,0,0-3.29-3,12.51,12.51,0,0,1-4.56-5.18,18.49,18.49,0,0,1-.53-13.23l.15-.4a14.69,14.69,0,0,0,.73-2.3,15.55,15.55,0,0,1-5.29.8,15.33,15.33,0,0,1-4.51-.8,13.81,13.81,0,0,0,.72,2.3l.15.4A18.54,18.54,0,0,1,35,32.49a12.6,12.6,0,0,1-4.52,5.16,8.28,8.28,0,0,0-3.34,3,10.12,10.12,0,0,0-.59,1.13,9.82,9.82,0,0,0-.82,3.76q0,14.22-.09,28.55c-.06,11.31-.16,22.78-.29,34.08Zm9.1-92.79a14.23,14.23,0,0,0,4.74.94,14.38,14.38,0,0,0,5.46-.94,16,16,0,0,0,.09-3.1,20.67,20.67,0,0,1-3.46.65c-.46,0-.92.07-1.36.08h-.74c-.45,0-.9,0-1.37-.08a20.37,20.37,0,0,1-3.45-.65A14.54,14.54,0,0,0,34.41,15.42Z"/><path class="cls-2" d="M46.77,70.57,42.07,58h1.19l4,10.94,4-10.94h1.18L47.8,70.57Z"/><path class="cls-2" d="M54.36,70.57V58h1.1v12.6Z"/><path class="cls-2" d="M58.5,70.57V58h1.1l7.11,10.61V58h1.12v12.6H66.75L59.6,59.84V70.57Z"/><path class="cls-2" d="M75.19,70.78a4.27,4.27,0,0,1-3.34-1.3,5.49,5.49,0,0,1-1.18-3.81V58h1.14v7.66a4.64,4.64,0,0,0,.85,3,3.55,3.55,0,0,0,5.08,0,4.64,4.64,0,0,0,.85-3V58h1.12v7.7a5.53,5.53,0,0,1-1.17,3.81A4.27,4.27,0,0,1,75.19,70.78Z"/><path class="cls-2" d="M82.57,70.57V58h1.1L88,64.46,92.29,58h1.13v12.6H92.29V59.89l-4,6.07H87.7l-4-6.07V70.57Z"/></g></svg>