<svg xmlns="http://www.w3.org/2000/svg" width="34.72mm" height="45.87mm" viewBox="0 0 98.43 130.04"><defs><style>.cls-1{fill:#2c64ad;}.cls-2{fill:#2d65ad;}</style></defs><g id="Lag_1" data-name="Lag 1"><rect class="cls-1" x="45.63" y="49.28" width="11.09" height="1.18"/><rect class="cls-1" x="45.63" y="80.19" width="11.09" height="1.18"/><ellipse class="cls-1" cx="30.94" cy="11.12" rx="6.05" ry="0.93"/><path class="cls-1" d="M30.94,114.13c-7.37,0-15.2-1.77-15.2-5a2.14,2.14,0,0,1,.07-.49,1.34,1.34,0,0,1-.07-.39c.13-11.3.23-22.77.29-34.08q.07-14.33.09-28.54A10.74,10.74,0,0,1,17,41.43a9.36,9.36,0,0,1,.65-1.26,9.22,9.22,0,0,1,3.69-3.39,11.41,11.41,0,0,0,4.11-4.72A17.62,17.62,0,0,0,26,19.61l-.14-.39a14.57,14.57,0,0,1-.9-3.1,16.54,16.54,0,0,1-.13-4.51l.07-.6.58.18A18.92,18.92,0,0,0,29.3,12c.44,0,.87.07,1.29.08h.7c.41,0,.84,0,1.29-.08a19,19,0,0,0,3.84-.78L37,11l.07.6a16.55,16.55,0,0,1-.13,4.51,14.57,14.57,0,0,1-.9,3.1l-.14.39a17.62,17.62,0,0,0,.49,12.45,11.44,11.44,0,0,0,4.16,4.75,9.13,9.13,0,0,1,3.64,3.36,9.42,9.42,0,0,1,.66,1.26,10.87,10.87,0,0,1,.9,4.15v4.85H26.56V80.2H45.88v1.26q.09,13.42.24,26.74a1.34,1.34,0,0,1-.07.39,2.14,2.14,0,0,1,.07.49C46.13,112.36,38.3,114.13,30.94,114.13Zm-14.2-5.92.05.1.11.21-.08.21a1.07,1.07,0,0,0-.08.35c0,1.92,5.83,4,14.2,4s14.19-2.13,14.19-4a1.07,1.07,0,0,0-.08-.35l-.08-.21.11-.2a.27.27,0,0,0,.05-.12Q45,94.91,44.89,81.47V81.2H25.56V49.43H44.75V45.58a9.79,9.79,0,0,0-.82-3.76,10.12,10.12,0,0,0-.59-1.13,8.28,8.28,0,0,0-3.29-3,12.51,12.51,0,0,1-4.56-5.18A18.49,18.49,0,0,1,35,19.26l.15-.4a14.69,14.69,0,0,0,.73-2.3,15.59,15.59,0,0,1-5.29.8,15.45,15.45,0,0,1-4.52-.8,14.69,14.69,0,0,0,.73,2.3l.15.4a18.49,18.49,0,0,1-.53,13.23,12.5,12.5,0,0,1-4.51,5.16,8.28,8.28,0,0,0-3.34,3,10.12,10.12,0,0,0-.59,1.13,9.82,9.82,0,0,0-.82,3.76q0,14.22-.09,28.55c-.06,11.31-.16,22.78-.29,34.08Zm9.09-92.79a14.33,14.33,0,0,0,4.75.94A14.38,14.38,0,0,0,36,15.42a16,16,0,0,0,.09-3.1,20.67,20.67,0,0,1-3.46.65c-.47,0-.92.07-1.36.08h-.74c-.45,0-.9,0-1.37-.08a20.67,20.67,0,0,1-3.46-.65A16,16,0,0,0,25.83,15.42Z"/><path class="cls-2" d="M38.2,70.57,33.5,58h1.19l4,10.94,4-10.94h1.19l-4.7,12.6Z"/><path class="cls-2" d="M45.79,70.57V58h1.1v12.6Z"/><path class="cls-2" d="M49.93,70.57V58H51l7.11,10.61V58h1.12v12.6H58.18L51,59.84V70.57Z"/><path class="cls-2" d="M66.62,70.78a4.27,4.27,0,0,1-3.34-1.3,5.49,5.49,0,0,1-1.18-3.81V58h1.13v7.66a4.64,4.64,0,0,0,.86,3,3.55,3.55,0,0,0,5.08,0,4.64,4.64,0,0,0,.85-3V58h1.12v7.7A5.53,5.53,0,0,1,70,69.48,4.27,4.27,0,0,1,66.62,70.78Z"/><path class="cls-2" d="M74,70.57V58h1.1l4.34,6.49L83.72,58h1.13v12.6H83.72V59.89l-4,6.07h-.61l-4-6.07V70.57Z"/></g></svg>