<svg xmlns="http://www.w3.org/2000/svg" width="50.53mm" height="49.67mm" viewBox="0 0 143.23 140.8"><defs><style>.cls-1{fill:#2c64ad;}</style></defs><g id="Lag_1" data-name="Lag 1"><rect class="cls-1" x="53.44" y="49.28" width="11.09" height="1.18"/><path class="cls-1" d="M65,51H52.94V48.78H65ZM53.94,50H64v-.18H53.94Z"/><rect class="cls-1" x="53.44" y="80.19" width="11.09" height="1.18"/><path class="cls-1" d="M65,81.87H52.94V79.69H65Zm-11.09-1H64v-.18H53.94Z"/><path class="cls-1" d="M39.51,12c-3,0-6.51-.24-6.51-1.38s3.54-1.38,6.51-1.38S46,9.45,46,10.59,42.48,12,39.51,12Zm-4.9-1.38a25.08,25.08,0,0,0,4.9.38,25,25,0,0,0,4.89-.38,25,25,0,0,0-4.89-.38A25.08,25.08,0,0,0,34.61,10.59Z"/><path class="cls-1" d="M39.09,17.52h-.4a15.66,15.66,0,0,1-5.49-1.14l.74-1.85a14.14,14.14,0,0,0,4.8,1,13.87,13.87,0,0,0,5.48-1L45,16.38A15.7,15.7,0,0,1,39.09,17.52Z"/><path class="cls-1" d="M39.51,114.63c-7.8,0-15.7-1.91-15.7-5.55a2.1,2.1,0,0,1,.06-.48,1.32,1.32,0,0,1-.06-.39c.13-11.32.23-22.78.29-34.09,0-9.51.09-19.11.09-28.54a11.59,11.59,0,0,1,.95-4.35,9.72,9.72,0,0,1,4.52-4.87,11.08,11.08,0,0,0,3.94-4.51,17.17,17.17,0,0,0,.48-12.07l-.15-.37A15.82,15.82,0,0,1,33,16.2a16.7,16.7,0,0,1-.13-4.64L33,10.35l1.16.36a18.79,18.79,0,0,0,3.75.77c.43,0,.85.06,1.25.08h.69c.38,0,.8,0,1.24-.08a18.84,18.84,0,0,0,3.74-.77L46,10.35l.14,1.21A17.09,17.09,0,0,1,46,16.2a16.38,16.38,0,0,1-.93,3.21l-.14.37a17.17,17.17,0,0,0,.47,12.07,11.08,11.08,0,0,0,3.94,4.51,9.74,9.74,0,0,1,3.84,3.55,11.68,11.68,0,0,1,.69,1.32,11.51,11.51,0,0,1,.94,4.35v5.35H35.63V79.7H55v1.76q.09,13.42.24,26.73a1.84,1.84,0,0,1-.05.41,2.8,2.8,0,0,1,.05.48C55.2,112.72,47.3,114.63,39.51,114.63Zm-13.69-6.51.14.32-.1.47a.57.57,0,0,0-.05.17c0,1.21,4.84,3.55,13.7,3.55s13.69-2.34,13.69-3.55a.81.81,0,0,0,0-.17l-.16-.43.2-.37Q53.05,95,53,81.7H33.63V48.93H52.82V45.59A9.48,9.48,0,0,0,52,42,8.18,8.18,0,0,0,51.49,41a7.73,7.73,0,0,0-3.1-2.84l-.09,0a13,13,0,0,1-4.69-5.37,19.05,19.05,0,0,1-.55-13.61l.16-.41A13.56,13.56,0,0,0,44,15.86a13.91,13.91,0,0,0,.2-2.9,21,21,0,0,1-2.94.51l-1.39.09h-.78l-1.4-.09A21.28,21.28,0,0,1,34.78,13a14.63,14.63,0,0,0,.2,2.9,13.47,13.47,0,0,0,.82,2.82l.15.41a19,19,0,0,1-.54,13.61,13,13,0,0,1-4.7,5.37l-.09,0A7.64,7.64,0,0,0,27.53,41,8.24,8.24,0,0,0,27,42a9.69,9.69,0,0,0-.78,3.57c0,9.42,0,19-.09,28.54C26,85.41,25.94,96.85,25.82,108.12Zm0-.06Z"/><path class="cls-1" d="M43.64,72l-4.41-12.6h2.5l3.09,9.45,3.12-9.45h2.5L46,72Z"/><path class="cls-1" d="M51.79,72V59.35h2.34V72Z"/><path class="cls-1" d="M56.54,72V59.35h2.34l5.64,8.51V59.35h2.35V72H64.64l-5.76-8.81V72Z"/><path class="cls-1" d="M74,72.18a4.38,4.38,0,0,1-4.91-5V59.35h2.35v7.74a2.87,2.87,0,0,0,.7,2.17,2.57,2.57,0,0,0,1.86.65,2.53,2.53,0,0,0,1.85-.65,2.87,2.87,0,0,0,.69-2.17V59.35h2.36v7.86A5.07,5.07,0,0,1,77.67,71,5,5,0,0,1,74,72.18Z"/><path class="cls-1" d="M81.18,72V59.35h2.34l3.42,5.94,3.39-5.94h2.36V72H90.31V63.4l-2.7,4.89H86.24l-2.7-4.89V72Z"/></g></svg>