<svg id="Lag_1" data-name="Lag 1" xmlns="http://www.w3.org/2000/svg" width="50.53mm" height="49.67mm" viewBox="0 0 143.23 140.8"><defs><style>.cls-1,.cls-3{fill:none;stroke-width:2px;}.cls-1,.cls-2{stroke:#2072b9;}.cls-1,.cls-2,.cls-3,.cls-4{stroke-miterlimit:10;}.cls-2{fill:#2a3180;}.cls-3,.cls-4,.cls-5,.cls-6{stroke:#487bbe;}.cls-4,.cls-5,.cls-6,.cls-7{fill:#487bbe;}.cls-5{stroke-miterlimit:9.96;stroke-width:1px;}.cls-6{stroke-miterlimit:10;}</style></defs><path class="cls-1" d="M30.13,35.74H27.44V6.55c0-3-1.93-5.55-4.29-5.55H19.51c-2.36,0-4.29,2.5-4.29,5.55V35.74h-2C6.5,35.74,1,42.86,1,51.55V124c0,8.7,5.5,15.81,12.22,15.81H30.13c6.72,0,12.22-7.11,12.22-15.81V51.55C42.35,42.86,36.85,35.74,30.13,35.74Z"/><ellipse class="cls-2" cx="25.96" cy="13.12" rx="8.38" ry="2.71"/><rect class="cls-2" x="6.23" y="70.4" width="36.11" height="33.98"/><path class="cls-3" d="M30.13,35.74H27.44V6.55c0-3-1.93-5.55-4.29-5.55H19.51c-2.36,0-4.29,2.5-4.29,5.55V35.74h-2C6.5,35.74,1,42.86,1,51.55V124c0,8.7,5.5,15.81,12.22,15.81H30.13c6.72,0,12.22-7.11,12.22-15.81V51.55C42.35,42.86,36.85,35.74,30.13,35.74Z"/><ellipse class="cls-4" cx="25.96" cy="13.12" rx="8.38" ry="2.71"/><ellipse class="cls-5" cx="15.6" cy="17.27" rx="2.68" ry="4.8" transform="translate(-4.15 29.57) rotate(-79.84)"/><ellipse class="cls-6" cx="14.93" cy="21.45" rx="2.69" ry="4.46" transform="translate(-9.19 31.52) rotate(-77.83)"/><ellipse class="cls-6" cx="14.63" cy="25.16" rx="2.68" ry="4.28" transform="translate(-13.23 33.59) rotate(-76.65)"/><ellipse class="cls-6" cx="15.26" cy="29.29" rx="2.67" ry="4.14" transform="translate(-16.92 36.73) rotate(-75.49)"/><rect class="cls-4" x="6.23" y="70.4" width="36.11" height="33.98"/><path class="cls-4" d="M66.93,29.41,61.05,14.75l-1.58-.83v-.38H65.6v.38l-2,.91,4.29,10.76H68l4.25-10.83-2-.84v-.38h4.85v.38l-1.31.74-6,14.78Z"/><path class="cls-4" d="M77.37,29.29v-.37l1.88-1V14.85l-1.88-1v-.38H83.5v.45l-1.86,1v13l1.86,1v.38Z"/><path class="cls-4" d="M86.26,29.29v-.37l1.86-1v-13l-1.84-1v-.38h3.61l8.8,11.26v-10l-2.37-.91v-.38h5.81v.38l-1.84.94V29.41h-1L89.73,17.17V28l2.36.93v.38Z"/><path class="cls-4" d="M112.43,29.53a7.27,7.27,0,0,1-3.18-.67,4.94,4.94,0,0,1-2.19-2.1,7.77,7.77,0,0,1-.79-3.76V14.85l-1.86-1v-.38h6.13v.45l-1.86,1v7.89a6.93,6.93,0,0,0,.6,3.14,3.67,3.67,0,0,0,1.61,1.67,5.08,5.08,0,0,0,2.27.5,4.18,4.18,0,0,0,1.87-.44,3.26,3.26,0,0,0,1.38-1.44,5.52,5.52,0,0,0,.52-2.59V14.8l-2.25-.88v-.38h5.72v.38l-1.86.94V23a7.78,7.78,0,0,1-.8,3.76,4.84,4.84,0,0,1-2.17,2.1A7.07,7.07,0,0,1,112.43,29.53Z"/><path class="cls-4" d="M123.06,29.29v-.37l1.84-1,.48-13.1-2-1v-.38H128l5.18,12.48,5.12-12.36h4.35v.36l-1.95.89.43,13.11,1.65,1v.38h-5.68v-.38l1.73-.93-.18-11.71-5.42,13.13h-1.11l-5.37-13L126.4,28l1.91.93v.38Z"/><path class="cls-7" d="M26.6,10.41V32.16c10.27,0,18.6-4.87,18.6-10.87S36.84,10.41,26.6,10.41Z"/><path class="cls-7" d="M54.47,31.16v-18c-10.27,0-18.6,4-18.6,9S44.2,31.16,54.47,31.16Z"/><rect class="cls-7" x="53.29" y="7.12" width="1.18" height="28.65"/><rect class="cls-7" x="53.29" y="34.59" width="22.56" height="1.18"/><rect class="cls-7" x="53.29" y="7.12" width="22.56" height="1.18"/></svg>